<svg xmlns="http://www.w3.org/2000/svg" width="30" height="30" viewBox="0 0 30 30">
  <g>
    <g>
      <g>
        <g>
          <g>
            <path id="whasapp" class="cls-1" d="M15,0h0A15,15,0,0,0,2.86,23.79L1,29.36l5.77-1.84A15,15,0,1,0,15,0Zm8.73,21.18a4.23,4.23,0,0,1-2.94,2.12c-.78.17-1.81.3-5.25-1.13-4.41-1.83-7.25-6.31-7.47-6.6A8.57,8.57,0,0,1,6.28,11,4.79,4.79,0,0,1,7.82,7.4a2.18,2.18,0,0,1,1.53-.54l.5,0c.44,0,.66,0,1,.74.36.87,1.24,3,1.35,3.25a.89.89,0,0,1,.06.81,2.59,2.59,0,0,1-.49.69c-.22.25-.43.45-.65.72s-.43.49-.18.93a13.31,13.31,0,0,0,2.43,3,11,11,0,0,0,3.52,2.17A1,1,0,0,0,17.91,19a18.15,18.15,0,0,0,1.17-1.55.84.84,0,0,1,1.08-.33c.4.14,2.55,1.2,3,1.42s.73.33.84.51A3.74,3.74,0,0,1,23.73,21.18Z"/>
          </g>
        </g>
      </g>
    </g>
  </g>
</svg>
