<svg width="64" height="70" viewBox="0 0 64 70" fill="none" xmlns="http://www.w3.org/2000/svg">
<path id="Website" d="M62.7735 25.2444L33.7919 0.662546C32.7483 -0.220849 31.2273 -0.220849 30.1849 0.662546L0.998056 25.4189C0.0970889 26.1829 -0.23341 27.4332 0.169638 28.5479C0.573305 29.6627 1.62433 30.4054 2.80185 30.4054H7.05989V63.2211C7.05989 66.9647 10.0704 69.9994 13.7827 69.9994H23.3058V50.796C23.3058 49.5494 24.3097 48.5372 25.5468 48.5372H38.4313C39.6689 48.5372 40.6716 49.5494 40.6716 50.796V70H50.1953C53.9077 70 56.9175 66.9634 56.9175 63.2217V30.4054H61.1749C61.1836 30.406 61.1935 30.4054 61.1991 30.4054C62.7462 30.4054 64 29.1413 64 27.5808C63.9988 26.6092 63.5132 25.7515 62.7735 25.2444Z"/>
</svg>
