<svg width="32" height="41" viewBox="0 0 32 41" fill="none" xmlns="http://www.w3.org/2000/svg">
<path d="M0.779291 19.5132L0.777483 19.5006L0.775037 19.4881C0.589229 18.54 0.5 17.5658 0.5 16.5979C0.5 8.10873 7.44975 1.19263 15.9916 1.19263C24.5333 1.19263 31.4838 8.10875 31.5 16.5989C31.4999 17.5636 31.4029 18.539 31.2242 19.4922L31.2222 19.5027L31.2207 19.5132C31.2154 19.5499 31.1861 19.707 31.119 20.0074C30.8845 21.053 30.5366 22.0671 30.083 23.0419L30.0796 23.0491L30.0765 23.0565C28.3866 27.0136 24.6408 33.1448 16.3987 39.7325C16.28 39.8267 16.1396 39.8726 16 39.8726C15.8601 39.8726 15.7195 39.8265 15.6006 39.732C7.35086 33.1446 3.61345 27.0138 1.9235 23.0565L1.92036 23.0491L1.91699 23.0419C1.46374 22.0678 1.11564 21.0453 0.880908 20.007C0.813856 19.7068 0.784554 19.5499 0.779291 19.5132Z" fill="white" stroke="#07352E"/>
<path fill-rule="evenodd" clip-rule="evenodd" d="M16 22.6396C12.6886 22.6396 10 19.9447 10 16.6396C10 13.3346 12.6949 10.6396 16 10.6396C19.3051 10.6396 22 13.3346 22 16.6396C22 19.9447 19.3114 22.6396 16 22.6396Z" fill="#07352E"/>
</svg>
