<svg width="662" height="280" viewBox="0 0 662 280" fill="none" xmlns="http://www.w3.org/2000/svg">
<path d="M128.338 204H0.3375V188L133.938 7.99999H168.338V187.6H204.338V204H168.338V272H128.338V204ZM128.338 187.6V48.4L25.1375 187.6H128.338ZM333.031 280C267.698 280 235.031 233.333 235.031 140C235.031 46.6667 267.698 -2.86102e-06 333.031 -2.86102e-06C398.365 -2.86102e-06 431.031 46.6667 431.031 140C431.031 233.333 398.365 280 333.031 280ZM333.031 263.6C346.631 263.6 357.298 259.2 365.031 250.4C373.031 241.6 378.631 228.267 381.831 210.4C385.298 192.267 387.031 168.8 387.031 140C387.031 111.2 385.298 87.8667 381.831 70C378.631 51.8667 373.031 38.4 365.031 29.6C357.298 20.8 346.631 16.4 333.031 16.4C319.431 16.4 308.631 20.8 300.631 29.6C292.898 38.4 287.298 51.7333 283.831 69.6C280.631 87.4667 279.031 110.933 279.031 140C279.031 169.067 280.631 192.533 283.831 210.4C287.298 228.267 292.898 241.6 300.631 250.4C308.631 259.2 319.431 263.6 333.031 263.6ZM585.369 204H457.369V188L590.969 7.99999H625.369V187.6H661.369V204H625.369V272H585.369V204ZM585.369 187.6V48.4L482.169 187.6H585.369Z" fill="#248274"/>
</svg>
