<svg xmlns="http://www.w3.org/2000/svg" width="152" height="94" viewBox="0 0 152 94">
  <defs>
    <style>
      .cls-1 {
        fill: #d9464e;
      }
    </style>
  </defs>
  <title>Ресурс 1</title>
  <g id="Слой_2" data-name="Слой 2">
    <g id="Слой_1-2" data-name="Слой 1">
      <g id="Makfa_UK" data-name="Makfa UK">
        <g id="_1_Makfa_UK-1920px" data-name="1_Makfa_UK-1920px">
          <path id="Email" class="cls-1" d="M151.79,10.71a12.15,12.15,0,0,1,.21,2.21h0V81.09C152,88.22,145.91,94,138.41,94H13.59C6.08,94,0,88.22,0,81.09H0V12.91a12.39,12.39,0,0,1,.21-2.21h0L71.94,53.19l.27.14.29.14a8.16,8.16,0,0,0,1.56.58l.16,0a8.05,8.05,0,0,0,1.77.21h0a8.22,8.22,0,0,0,1.78-.21l.16,0a7.92,7.92,0,0,0,1.56-.58l.29-.14.14-.07h0l.13-.07ZM138.41,0a14.33,14.33,0,0,1,2.14.17h0L76,38.41,11.45.17A14.55,14.55,0,0,1,13.59,0H138.41Z"/>
        </g>
      </g>
    </g>
  </g>
</svg>
