<svg width="12" height="12" viewBox="0 0 12 12" fill="none" xmlns="http://www.w3.org/2000/svg">
<path id="Shape" fill-rule="evenodd" clip-rule="evenodd" d="M6 3.5625C4.64297 3.5625 3.53906 4.66641 3.53906 6.02344C3.53906 7.38047 4.64297 8.48438 6 8.48438C7.35703 8.48438 8.46094 7.38047 8.46094 6.02344C8.46094 4.66641 7.35703 3.5625 6 3.5625ZM6 3.5625C4.64297 3.5625 3.53906 4.66641 3.53906 6.02344C3.53906 7.38047 4.64297 8.48438 6 8.48438C7.35703 8.48438 8.46094 7.38047 8.46094 6.02344C8.46094 4.66641 7.35703 3.5625 6 3.5625ZM10.2422 0H1.75781C0.7875 0 0 0.7875 0 1.75781V10.2422C0 11.2125 0.7875 12 1.75781 12H10.2422C11.2125 12 12 11.2125 12 10.2422V1.75781C12 0.7875 11.2125 0 10.2422 0ZM6 9.1875C4.25627 9.1875 2.83594 7.76716 2.83594 6.02344C2.83594 4.27966 4.25627 2.85938 6 2.85938C7.74373 2.85938 9.16406 4.27966 9.16406 6.02344C9.16406 7.76716 7.74373 9.1875 6 9.1875ZM9.86719 2.85938C9.48047 2.85938 9.16406 2.54297 9.16406 2.15625C9.16406 1.76953 9.48047 1.45312 9.86719 1.45312C10.2539 1.45312 10.5703 1.76953 10.5703 2.15625C10.5703 2.54297 10.2539 2.85938 9.86719 2.85938ZM6 3.5625C4.64297 3.5625 3.53906 4.66641 3.53906 6.02344C3.53906 7.38047 4.64297 8.48438 6 8.48438C7.35703 8.48438 8.46094 7.38047 8.46094 6.02344C8.46094 4.66641 7.35703 3.5625 6 3.5625ZM6 3.5625C4.64297 3.5625 3.53906 4.66641 3.53906 6.02344C3.53906 7.38047 4.64297 8.48438 6 8.48438C7.35703 8.48438 8.46094 7.38047 8.46094 6.02344C8.46094 4.66641 7.35703 3.5625 6 3.5625ZM6 3.5625C4.64297 3.5625 3.53906 4.66641 3.53906 6.02344C3.53906 7.38047 4.64297 8.48438 6 8.48438C7.35703 8.48438 8.46094 7.38047 8.46094 6.02344C8.46094 4.66641 7.35703 3.5625 6 3.5625Z"/>
</svg>
