<svg width="64" height="64" viewBox="0 0 65 64" fill="none" xmlns="http://www.w3.org/2000/svg">
<path id="Phone" d="M30.7081 39.3612C25.2087 34.8486 21.5367 29.2803 19.6062 26.1119L18.1662 23.4028C18.6697 22.8637 22.5093 18.7608 24.1733 16.5347C26.2643 13.7393 23.2326 11.2147 23.2326 11.2147C23.2326 11.2147 14.7022 2.70083 12.7581 1.01202C10.814 -0.679161 8.57607 0.26012 8.57607 0.26012C4.49003 2.89472 0.254127 5.18528 8.57797e-06 16.2013C-0.00946904 26.5151 7.83622 37.1528 16.3205 45.3882C24.8183 54.6888 36.4859 64.0106 47.766 64C58.8039 63.7488 61.0986 59.5223 63.7388 55.4448C63.7388 55.4448 64.6806 53.2133 62.9877 51.2715C61.2935 49.3303 52.7607 40.8159 52.7607 40.8159C52.7607 40.8159 50.2326 37.79 47.4307 39.8784C45.3427 41.436 41.5931 44.9005 40.6898 45.7405C40.6916 45.7434 34.4192 42.4066 30.7081 39.3612Z"/>
</svg>
