<svg width="76" height="48" viewBox="0 0 76 48" fill="none" xmlns="http://www.w3.org/2000/svg">
<path id="Email" fill-rule="evenodd" clip-rule="evenodd" d="M70.2764 0.0890413L38.0007 19.6113L5.72569 0.0890413C6.07547 0.036426 6.43219 0 6.79726 0H69.2041C69.5692 0 69.9252 0.0350769 70.2764 0.0890413ZM39.9584 27.1984C39.9834 27.1864 40.0082 27.1744 40.0319 27.1596L75.8929 5.4666C75.959 5.83355 76 6.20793 76 6.59378V41.4069C76 45.0481 72.957 48 69.2034 48H6.79657C3.04225 48 0 45.0481 0 41.4069V6.59378C0 6.20793 0.0417223 5.83288 0.106392 5.4666L35.9695 27.1596C35.9953 27.1756 36.0217 27.1882 36.0482 27.2009C36.0675 27.2101 36.0868 27.2193 36.1058 27.2298C36.1531 27.2547 36.2018 27.279 36.2497 27.3019C36.505 27.4281 36.7643 27.5299 37.0313 27.5981C37.0467 27.6019 37.0624 27.6049 37.078 27.6078C37.0898 27.6101 37.1017 27.6123 37.1134 27.6149C37.4062 27.6824 37.7024 27.7229 37.9986 27.7229H38.0021H38.0049C38.3011 27.7229 38.5966 27.6817 38.8908 27.6149C38.8988 27.6133 38.9068 27.6118 38.9148 27.6103C38.9333 27.6068 38.952 27.6033 38.9714 27.5981C39.2385 27.5306 39.4999 27.4288 39.7537 27.3019C39.8003 27.279 39.8504 27.2547 39.897 27.2298C39.9171 27.2182 39.9378 27.2083 39.9584 27.1984Z"/>
</svg>
