<svg xmlns="http://www.w3.org/2000/svg" width="90" height="24" viewBox="0 0 90 24">
  <title>Ресурс 1</title>
  <g id="Слой_2" data-name="Слой 2">
    <g id="Слой_1-2" data-name="Слой 1">
      <g id="Makfa_UK" data-name="Makfa UK">
        <g id="_1_Makfa_UK-1920px" data-name="1_Makfa_UK-1920px">
          <g id="Group-17">
            <path id="Shape-Copy" class="cls-1" d="M55.64,11.64a36.21,36.21,0,0,1-.24,4.19,11.06,11.06,0,0,1-1.27,4,8.05,8.05,0,0,1-3.09,3A12.24,12.24,0,0,1,45.27,24a11.31,11.31,0,0,1-5.54-1.19,7.84,7.84,0,0,1-3-3,9.7,9.7,0,0,1-1.27-4,37.24,37.24,0,0,1-.24-4.19A18.32,18.32,0,0,1,35.53,8a10.91,10.91,0,0,1,1.35-3.8,9.11,9.11,0,0,1,3-3A10.54,10.54,0,0,1,45.27,0a11.62,11.62,0,0,1,5.46,1A8,8,0,0,1,53.9,3.73a10.1,10.1,0,0,1,1.43,3.72,25.58,25.58,0,0,1,.32,4.19m22.17-1.58,2.14,7.28.08-.08a.08.08,0,0,1,.08.08l2.22-7.83L84.7,1.36A1.42,1.42,0,0,1,85,.64a.85.85,0,0,1,.63-.16h3.8c.32,0,.55.08.55.24a1.17,1.17,0,0,1-.08.55L83,22.49c-.16.55-.4.79-.63.87a2.19,2.19,0,0,1-.71.08H78.92a1.14,1.14,0,0,1-1.27-.95L76,17.74l-2-6h-.08l-2,6-1.58,4.75a1.46,1.46,0,0,1-1.5,1.11H66.41a1.42,1.42,0,0,1-1.11-.32,2.67,2.67,0,0,1-.48-.95l-7-20.89a.87.87,0,0,1,0-.63.57.57,0,0,1,.55-.32h3.8a2.31,2.31,0,0,1,.71.16,1,1,0,0,1,.32.63l2.38,8,2.38,8.15h.16l2.3-7.12,1.43-4.35L70.37,1.36a.87.87,0,0,1,0-.63.65.65,0,0,1,.48-.32h3.48A1.18,1.18,0,0,1,75,.57a2.81,2.81,0,0,1,.32.71ZM49.07,5.95,44.79,19.4h.4a7.28,7.28,0,0,0,2.61-.47,4.36,4.36,0,0,0,1.58-1.35,6.1,6.1,0,0,0,.79-2.29A15.6,15.6,0,0,0,50.33,12c0-1.11-.08-2.22-.16-3.24a6.1,6.1,0,0,0-.79-2.29A1.66,1.66,0,0,0,49.07,5.95ZM41.7,18.13,46,4.6h-.71a6.45,6.45,0,0,0-2.45.47,3.71,3.71,0,0,0-1.5,1.42,6,6,0,0,0-.79,2.37,22.28,22.28,0,0,0,0,6.49,6,6,0,0,0,.71,2.29ZM20.17,10.06l2.14,7.28.08-.08a.08.08,0,0,1,.08.08l2.22-7.83,2.38-8.15a1.42,1.42,0,0,1,.32-.71A.85.85,0,0,1,28,.49h3.8c.32,0,.55.08.55.24a1.17,1.17,0,0,1-.08.55l-7,21.29c-.16.55-.4.79-.63.87a2.19,2.19,0,0,1-.71.08H21.28A1.2,1.2,0,0,1,20,22.57l-1.66-4.91-2-6h-.08l-2.06,6.09-1.58,4.75a1.46,1.46,0,0,1-1.5,1.11H8.69a1.42,1.42,0,0,1-1.11-.32,2.67,2.67,0,0,1-.48-.95L.06,1.44A.87.87,0,0,1,.06.8.53.53,0,0,1,.53.49h3.8A2.31,2.31,0,0,1,5,.64a1,1,0,0,1,.32.63l2.38,8,2.38,8.15h.16l2.3-7.12L14,6l-1.5-4.59a.87.87,0,0,1,0-.63A.65.65,0,0,1,13,.49h3.48a1.18,1.18,0,0,1,.71.16,1.42,1.42,0,0,1,.32.71Z"/>
          </g>
        </g>
      </g>
    </g>
  </g>
</svg>
