<svg width="320" height="370" viewBox="0 0 320 370" fill="none" xmlns="http://www.w3.org/2000/svg">
<path d="M74.0418 191.44H20.2818V184.72L76.3938 109.12H90.8418V184.552H105.962V191.44H90.8418V220H74.0418V191.44ZM74.0418 184.552V126.088L30.6978 184.552H74.0418ZM160.013 223.36C132.573 223.36 118.853 203.76 118.853 164.56C118.853 125.36 132.573 105.76 160.013 105.76C187.453 105.76 201.173 125.36 201.173 164.56C201.173 203.76 187.453 223.36 160.013 223.36ZM160.013 216.472C165.725 216.472 170.205 214.624 173.453 210.928C176.813 207.232 179.165 201.632 180.509 194.128C181.965 186.512 182.693 176.656 182.693 164.56C182.693 152.464 181.965 142.664 180.509 135.16C179.165 127.544 176.813 121.888 173.453 118.192C170.205 114.496 165.725 112.648 160.013 112.648C154.301 112.648 149.765 114.496 146.405 118.192C143.157 121.888 140.805 127.488 139.349 134.992C138.005 142.496 137.333 152.352 137.333 164.56C137.333 176.768 138.005 186.624 139.349 194.128C140.805 201.632 143.157 207.232 146.405 210.928C149.765 214.624 154.301 216.472 160.013 216.472ZM265.995 191.44H212.235V184.72L268.347 109.12H282.795V184.552H297.915V191.44H282.795V220H265.995V191.44ZM265.995 184.552V126.088L222.651 184.552H265.995Z" fill="#248274"/>
<circle opacity="0.2" cx="160" cy="165" r="84" stroke="#248274"/>
<circle opacity="0.1" cx="160" cy="165" r="144" stroke="#248274"/>
<circle opacity="0.05" cx="160" cy="165" r="204" stroke="#248274"/>
</svg>
