<svg xmlns="http://www.w3.org/2000/svg" width="128" height="128" viewBox="0 0 128 128">
  <defs>
    <style>
      .cls-1 {
        fill: #2da291;
      }
    </style>
  </defs>
  <title>Ресурс 1</title>
  <g id="Слой_2" data-name="Слой 2">
    <g id="Слой_1-2" data-name="Слой 1">
      <g id="Makfa_UK" data-name="Makfa UK">
        <g id="_1_Makfa_UK-1920px" data-name="1_Makfa_UK-1920px">
          <path id="Phone" class="cls-1" d="M61.42,78.72c-11-9-18.34-20.16-22.2-26.5l-2.88-5.42c1-1.08,8.69-9.28,12-13.74,4.18-5.59-1.88-10.64-1.88-10.64S29.4,5.4,25.52,2A8.39,8.39,0,0,0,17.15.52C9,5.79.51,10.37,0,32.4,0,53,15.67,74.31,32.64,90.78,49.64,109.38,73,128,95.53,128c22.08-.5,26.67-9,31.95-17.11a8.34,8.34,0,0,0-1.5-8.35c-3.39-3.88-20.45-20.91-20.45-20.91s-5.06-6.05-10.66-1.87c-4.18,3.12-11.68,10-13.48,11.72C81.38,91.49,68.84,84.81,61.42,78.72Z"/>
        </g>
      </g>
    </g>
  </g>
</svg>
