<svg xmlns="http://www.w3.org/2000/svg" width="128" height="138" viewBox="0 0 128 138">
  <defs>
    <style>
      .cls-1 {
        fill: #e18d16;
      }
    </style>
  </defs>
  <title>Ресурс 1</title>
  <g id="Слой_2" data-name="Слой 2">
    <g id="Слой_1-2" data-name="Слой 1">
      <g id="Makfa_UK" data-name="Makfa UK">
        <g id="_1_Makfa_UK-1920px" data-name="1_Makfa_UK-1920px">
          <path id="Website" class="cls-1" d="M125.55,49.77l-58-48.46a5.63,5.63,0,0,0-7.21,0L2,50.11A5.55,5.55,0,0,0,.34,56.28,5.6,5.6,0,0,0,5.6,59.94h8.52v64.69A13.41,13.41,0,0,0,27.57,138h19V100.14a4.47,4.47,0,0,1,4.48-4.45H76.86a4.47,4.47,0,0,1,4.48,4.45V138h19a13.41,13.41,0,0,0,13.44-13.36V59.94h8.56a5.56,5.56,0,0,0,3.15-10.17Z"/>
        </g>
      </g>
    </g>
  </g>
</svg>
